<svg width="34" height="34" viewBox="0 0 34 34" fill="none" xmlns="http://www.w3.org/2000/svg">
<path d="M17 34C26.3888 34 34 26.3888 34 17C34 7.61116 26.3888 0 17 0C7.61116 0 0 7.61116 0 17C0 26.3888 7.61116 34 17 34Z" fill="#F833A9"/>
<path d="M26.823 14.9008C26.6432 14.9183 26.4627 14.9274 26.2821 14.9282C25.3069 14.9284 24.3471 14.6857 23.4891 14.222C22.6312 13.7584 21.9023 13.0884 21.3681 12.2725V21.316C21.3681 22.6379 20.9761 23.9302 20.2416 25.0294C19.5071 26.1286 18.4632 26.9853 17.2419 27.4912C16.0206 27.9971 14.6766 28.1295 13.38 27.8716C12.0835 27.6137 10.8925 26.9771 9.95771 26.0423C9.02293 25.1075 8.38634 23.9165 8.12843 22.62C7.87053 21.3234 8.0029 19.9794 8.50879 18.7581C9.01469 17.5368 9.8714 16.4929 10.9706 15.7584C12.0698 15.0239 13.3621 14.6319 14.684 14.6319C14.8236 14.6319 14.96 14.6445 15.0971 14.6531V17.9469C14.96 17.9304 14.8251 17.9054 14.684 17.9054C13.7793 17.9054 12.9116 18.2648 12.2718 18.9045C11.6321 19.5443 11.2726 20.412 11.2726 21.3168C11.2726 22.2215 11.6321 23.0892 12.2718 23.729C12.9116 24.3687 13.7793 24.7281 14.684 24.7281C16.5684 24.7281 18.2326 23.2435 18.2326 21.3591L18.2655 6H21.4167C21.5606 7.36917 22.1813 8.64417 23.1701 9.60206C24.159 10.5599 25.4531 11.1398 26.8261 11.2401V14.9008" fill="white"/>
</svg>
