<svg width="34" height="34" viewBox="0 0 34 34" fill="none" xmlns="http://www.w3.org/2000/svg">
<path d="M17 34C26.3888 34 34 26.3888 34 17C34 7.61116 26.3888 0 17 0C7.61116 0 0 7.61116 0 17C0 26.3888 7.61116 34 17 34Z" fill="#F833A9"/>
<path fill-rule="evenodd" clip-rule="evenodd" d="M27.6915 10.2868C28.0642 10.6595 28.3327 11.1233 28.4704 11.632C29.2631 14.8228 29.0799 19.8622 28.4857 23.1761C28.3481 23.6849 28.0795 24.1487 27.7069 24.5213C27.3342 24.894 26.8704 25.1626 26.3616 25.3002C24.4992 25.8082 17.0033 25.8082 17.0033 25.8082C17.0033 25.8082 9.5073 25.8082 7.64486 25.3002C7.13612 25.1626 6.67231 24.894 6.29964 24.5213C5.92696 24.1487 5.65842 23.6849 5.52075 23.1761C4.72344 19.9992 4.94201 14.9567 5.50536 11.6474C5.64303 11.1387 5.91157 10.6749 6.28424 10.3022C6.65692 9.92954 7.12072 9.661 7.62947 9.52333C9.49191 9.01539 16.9879 9 16.9879 9C16.9879 9 24.4838 9 26.3462 9.50794C26.855 9.6456 27.3188 9.91415 27.6915 10.2868ZM20.8205 17.4041L14.6021 21.0059V13.8024L20.8205 17.4041Z" fill="white"/>
</svg>
