<svg width="72" height="70" viewBox="0 0 72 70" fill="none" xmlns="http://www.w3.org/2000/svg">
<path fill-rule="evenodd" clip-rule="evenodd" d="M58.9433 0.854521C57.8191 -0.284852 55.9964 -0.284851 54.8722 0.854522C53.7479 1.99389 53.7479 3.84118 54.8722 4.98056L67.0857 17.3587C68.2099 18.498 70.0326 18.498 71.1569 17.3587C72.2811 16.2193 72.2811 14.372 71.1569 13.2326L58.9433 0.854521ZM66.6756 16.9504L55.2797 5.39404L48.4389 12.3312C43.4823 8.94116 37.5097 6.96215 31.0814 6.96215C13.9156 6.96215 0 21.0736 0 38.481C0 55.8884 13.9156 69.9999 31.0814 69.9999C48.2471 69.9999 62.1627 55.8884 62.1627 38.481C62.1627 33.5369 61.0401 28.8587 59.0394 24.6941L66.6756 16.9504ZM9.48038 34.979H52.6823C51.0266 24.3933 41.9859 16.3011 31.0814 16.3011C20.1768 16.3011 11.1361 24.3933 9.48038 34.979Z" fill="white"/>
</svg>
