<?xml version="1.0" encoding="utf-8"?>
<!-- Generator: Adobe Illustrator 26.0.2, SVG Export Plug-In . SVG Version: 6.00 Build 0)  -->
<svg version="1.1" id="Layer_1" xmlns="http://www.w3.org/2000/svg" xmlns:xlink="http://www.w3.org/1999/xlink" x="0px" y="0px"
	 viewBox="0 0 342.2 342.2" style="enable-background:new 0 0 342.2 342.2;" xml:space="preserve">
<style type="text/css">
	.st0{fill:url(#SVGID_1_);}
	.st1{fill:#FFFFFF;}
</style>
<g>
	
		<linearGradient id="SVGID_1_" gradientUnits="userSpaceOnUse" x1="163.5587" y1="165.7704" x2="184.3592" y2="507.3208" gradientTransform="matrix(0.9982 -6.078796e-02 -6.078796e-02 -0.9982 17.9121 517.6144)">
		<stop  offset="3.255674e-04" style="stop-color:#E2570B"/>
		<stop  offset="1" style="stop-color:#FEB031"/>
	</linearGradient>
	<circle class="st0" cx="171.1" cy="171.1" r="171.1"/>
	<g>
		<path class="st1" d="M61.6,224.9c0,0,74-36.4,111.7-53.4s37.7-26.7,37.7-42.1c0-15.3-16.2-28-25-28s-57.4,0-57.4,0v64.4l14.5-6.6
			v-44.3c0,0,25,0,37.2,0c12.3,0,17.5,11.8,18,14.9c0.4,3.1,0.9,15.8-9.6,21c-10.5,5.3-121.8,56.5-121.8,56.5L61.6,224.9z"/>
		<g>
			<path class="st1" d="M171.1,60.3c61.1,0,110.8,49.7,110.8,110.8s-49.7,110.8-110.8,110.8S60.3,232.2,60.3,171.1
				C60.3,110,110,60.3,171.1,60.3 M171.1,48.4c-67.8,0-122.7,54.9-122.7,122.7s54.9,122.7,122.7,122.7s122.6-54.9,122.6-122.7
				S238.8,48.4,171.1,48.4L171.1,48.4z"/>
		</g>
		<path class="st1" d="M128.7,205.7v30.2c0,0,62.7,0,71.4,0s48.6-23.1,29.8-64.8l51.3-26.8l-4.8-13.1l-67.9,35.1
			c0,0,18.4,13.1,11.4,33.3c-7,20.2-21,22.3-21,22.3h-55.6v-23.2L128.7,205.7z"/>
	</g>
</g>
</svg>
