<?xml version="1.0" encoding="utf-8"?>
<!-- Generator: Adobe Illustrator 26.0.2, SVG Export Plug-In . SVG Version: 6.00 Build 0)  -->
<svg version="1.1" id="Layer_1" xmlns="http://www.w3.org/2000/svg" xmlns:xlink="http://www.w3.org/1999/xlink" x="0px" y="0px"
	 viewBox="0 0 283.6 290" style="enable-background:new 0 0 283.6 290;" xml:space="preserve">
<style type="text/css">
	.st0{fill:#1F1847;}
	.st1{fill:url(#SVGID_1_);}
	.st2{fill:url(#SVGID_00000051368172121827909580000002190940926694082967_);}
	.st3{fill:url(#SVGID_00000110457222252307975080000017719038437186413499_);}
	.st4{fill:url(#SVGID_00000074432022624960164240000015709866960830177178_);}
	.st5{fill:url(#SVGID_00000083084925779449898230000001784961021772572815_);}
	.st6{fill:url(#SVGID_00000019650048336212599590000004772328454868033982_);}
	.st7{fill:url(#SVGID_00000031903435905609656950000011626894573326562740_);}
	.st8{fill:#FFFFFF;}
</style>
<g>
	<g>
		<path class="st0" d="M51.5,207.3c0.6-0.6,1-1.1,1.2-1.6c0.3-0.5,0.4-1.2,0.4-2v-10.8c0-0.1,0-0.3,0-0.5c-0.1-1.1-0.5-2.2-1.2-3.1
			h11.7c1.3,0,2.3,0.3,3.3,1s1.5,1.7,1.5,3c0,0.4-0.1,0.8-0.2,1.2c-0.4,1.5-1.9,2.6-4.3,3.1c-0.1,0-0.3,0.1-0.6,0.1
			c1.5,0,2.7,0.3,3.7,0.9c1.2,0.7,1.8,1.8,1.8,3.2c0,0.3,0,0.6-0.1,1c-0.5,2.4-2.6,3.8-6.4,4.2c-0.3,0-0.6,0-0.7,0H51.5V207.3z
			 M58.8,196.3c0.2,0.1,0.6,0.1,1,0.1c2.1,0,3.2-0.7,3.2-2.1c0-0.1,0-0.2,0-0.3c-0.1-0.9-0.8-1.5-2.2-1.6c-0.3,0-0.7,0-1.5,0H59
			h-0.3L58.8,196.3L58.8,196.3z M58.8,204L58.8,204l0.6,0.1c0.6,0.1,1.1,0.1,1.4,0c1.4-0.2,2.1-1,2.3-2.4c0.1-1.7-0.9-2.6-3.3-2.6
			h-0.2c0,0-0.1,0-0.2,0h-0.6L58.8,204L58.8,204z"/>
		<path class="st0" d="M69.3,207.3c0.6-0.6,1-1.1,1.2-1.6s0.3-1.2,0.3-1.9V193c0-0.8-0.1-1.4-0.3-1.9c-0.2-0.4-0.5-1-1-1.7h8.3
			c-0.9,0.9-1.3,2.1-1.3,3.6v10.6c1,0.1,1.9,0.1,2.7,0.1c2.8-0.1,4.8-0.6,6.1-1.4l-1.7,5H69.3z"/>
		<path class="st0" d="M88.7,191.5c1.4-1.3,3.1-2.1,5-2.4c0.9-0.1,1.8-0.2,2.6-0.2c3.4,0,6,1,7.9,3.1c1.5,1.6,2.3,3.6,2.3,5.8
			c0,1.9-0.5,3.6-1.4,5.2c-1.7,2.8-4.2,4.4-7.6,4.8c-0.6,0.1-1.1,0.1-1.7,0.1c-2.9,0-5.3-0.8-7.2-2.4c-2-1.7-3.1-4-3.1-6.8
			C85.6,195.8,86.6,193.4,88.7,191.5z M91.3,197.8c0.1,1.3,0.4,2.4,0.9,3.2c1.2,2.3,2.8,3.5,4.6,3.4c2.8-0.1,4.1-1.9,4.1-5.6
			c-0.1-3.1-1-5.4-2.9-6.7c-0.8-0.6-1.7-0.8-2.7-0.7c-1.3,0.1-2.3,0.7-3,1.7c-0.6,0.9-0.9,2.1-0.9,3.5
			C91.2,197,91.2,197.4,91.3,197.8z"/>
		<path class="st0" d="M124.1,189.5v3.7l-0.8-0.5c-0.1,0-0.4-0.2-0.8-0.4c-1.1-0.5-2.2-0.8-3.3-0.8c-1.6,0-3,0.6-3.9,1.7
			c-0.9,1-1.4,2.4-1.5,4.1c-0.1,2.2,0.4,4,1.7,5.3c1.3,1.3,3,2,5.2,2c2.4,0,4.4-0.6,5.9-1.9l-2.4,4.6c-1.5,0.4-3.2,0.5-4.9,0.5
			c-4.8,0-8.2-1.7-10-5c-0.8-1.4-1.2-2.9-1.2-4.5c0-0.4,0-0.8,0.1-1.3c0.4-2.8,1.6-4.8,3.7-6.3c1.8-1.3,4.2-1.9,7.1-1.9
			c1,0,2.3,0.1,3.7,0.3l0.8,0.1L124.1,189.5z"/>
		<path class="st0" d="M125.7,207.3c1-1,1.6-2.2,1.6-3.6v-10.8c0-1.3-0.4-2.5-1.2-3.6h8.3l-0.1,0.1l-0.1,0.1c-0.7,0.9-1.1,2-1.1,3.3
			v10.8c0,1.2,0.4,2.3,1.2,3.3c0,0,0.1,0.1,0.2,0.3h-8.8V207.3z M133.3,197.3l3.7-4.4c0.8-0.9,1.2-1.7,1.2-2.3
			c0-0.5-0.1-0.9-0.4-1.3h7.4l-6.7,7.4l0.6,1.1c1.2,2.1,2,3.5,2.6,4.3c0.9,1.4,2.3,3,4,4.7l0,0l0.2,0.3h-5.2c-0.9,0-1.8-0.4-2.6-1.1
			c-0.6-0.6-1.3-1.5-1.8-2.5c-0.3-0.6-0.8-1.5-1.4-2.6C134.4,199.6,133.8,198.4,133.3,197.3z"/>
		<path class="st0" d="M161.7,189.5v3.7l-0.8-0.5c-0.1,0-0.4-0.2-0.8-0.4c-1.1-0.5-2.2-0.8-3.3-0.8c-1.6,0-3,0.6-3.9,1.7
			c-0.9,1-1.4,2.4-1.5,4.1c-0.1,2.2,0.4,4,1.7,5.3c1.3,1.3,3,2,5.2,2c2.4,0,4.4-0.6,5.9-1.9l-2.4,4.6c-1.5,0.4-3.2,0.5-4.9,0.5
			c-4.8,0-8.2-1.7-10-5c-0.8-1.4-1.2-2.9-1.2-4.5c0-0.4,0-0.8,0.1-1.3c0.4-2.8,1.6-4.8,3.7-6.3c1.8-1.3,4.2-1.9,7.1-1.9
			c1,0,2.3,0.1,3.7,0.3l0.8,0.1L161.7,189.5z"/>
		<path class="st0" d="M163.3,207.3c0,0,0.1-0.1,0.3-0.3c0.9-1,1.4-2.1,1.4-3.3v-10.8c0-0.8-0.1-1.5-0.3-1.9c-0.1-0.4-0.5-0.9-1-1.6
			h8.3l-0.1,0.1l-0.1,0.1c-0.8,1-1.1,2.1-1.1,3.3v3.2h6.1v-3.2c0-1.2-0.4-2.3-1.1-3.3c0-0.1-0.1-0.2-0.2-0.3h8.3l-0.2,0.3
			c-0.7,0.9-1.1,2-1.1,3.3v10.8c0,1.3,0.5,2.4,1.4,3.3l0.3,0.3h-9c0,0,0.1-0.1,0.3-0.3c0.9-0.9,1.3-2,1.3-3.3v-4.2h-5.9v4.2
			c0,1.3,0.5,2.5,1.6,3.6L163.3,207.3L163.3,207.3z"/>
		<path class="st0" d="M182.8,207.3c0.1-0.1,0.2-0.2,0.3-0.3c1-1,1.7-2.1,2.2-3.3l4.4-10.8c0.3-0.8,0.5-1.4,0.5-1.9
			c0-0.4-0.1-0.8-0.3-1.3c0-0.1-0.1-0.2-0.1-0.3h6.3l5.4,14.4c0.5,1.3,1.3,2.5,2.3,3.6h-9.4c0.7-1,1-1.8,0.9-2.5l0,0l-0.2-1
			l-0.1-0.5h-5.5l-0.2,0.5c-0.2,0.6-0.3,1.1-0.3,1.6s0.2,1.1,0.6,1.7c0.1,0,0.1,0.1,0.2,0.2h-7V207.3z M190.7,199.9h3.3l-1.6-4.8
			L190.7,199.9z"/>
		<path class="st0" d="M202.9,189.4h8.9c-1.1,1.1-1.6,2.3-1.6,3.6v10.8c0,0.7,0.1,1.3,0.2,1.7c0.1,0.4,0.4,0.9,0.8,1.6
			c0,0,0.1,0.1,0.2,0.3h-8.2c0,0,0.1-0.1,0.2-0.3c0.7-0.9,1-2,1-3.3V193c0-0.8-0.1-1.5-0.3-2C203.8,190.5,203.4,189.9,202.9,189.4z"
			/>
		<path class="st0" d="M211.7,207.3c0.2-0.2,0.5-0.5,0.7-0.8c0.3-0.3,0.4-0.6,0.6-0.8c0.2-0.5,0.3-1.2,0.3-2v-10.8
			c0-0.7-0.1-1.3-0.2-1.8c-0.1-0.4-0.4-1-0.9-1.5c0,0-0.1-0.1-0.2-0.3h7.1l7.9,10.1v-6.5c0-1.2-0.4-2.3-1.1-3.3
			c0-0.1-0.1-0.2-0.2-0.3h6.4c-0.5,0.6-0.8,1.2-1,1.7s-0.3,1.2-0.3,1.9v15.4c0,0-0.2,0-0.4,0c-1.5,0-2.7-0.3-3.6-0.9
			c-0.7-0.5-1.6-1.4-2.7-2.7l-1-1.3l-5.8-7.5v7.7c0,1.3,0.4,2.4,1.3,3.3l0.3,0.3L211.7,207.3L211.7,207.3z"/>
	</g>
	<g>
		<path class="st0" d="M63.3,288.1c0.1-0.1,0.3-0.3,0.5-0.5c1.7-1.8,2.6-3.8,2.6-6.1v-19.9c0-1.5-0.2-2.7-0.5-3.6
			c-0.3-0.7-0.9-1.7-1.9-3h15.4c-0.1,0.1-0.2,0.2-0.2,0.3l-0.2,0.2c-1.4,1.8-2.1,3.8-2.1,6.1v5.9h11.2v-5.9c0-2.2-0.7-4.3-2.1-6.1
			c-0.1-0.1-0.2-0.3-0.5-0.6h15.3l-0.4,0.6c-1.3,1.7-2,3.8-2,6.1v19.9c0,2.3,0.9,4.3,2.6,6.1l0.5,0.5H85c0.1-0.1,0.3-0.3,0.5-0.5
			c1.6-1.7,2.4-3.7,2.4-6.1v-7.8H77.1v7.8c0,2.4,1,4.6,2.9,6.6H63.3z"/>
		<path class="st0" d="M106.4,255h15.3l-0.4,0.6c-1.3,1.6-1.9,3.6-1.9,6v15.8c0,2.9,1.5,4.5,4.4,4.8c0.5,0.1,1,0.1,1.4,0.1
			c1.3,0,2.4-0.3,3.3-0.8c1.1-0.6,1.7-1.5,1.9-2.7v-0.5v-1.1v-15.6c0-2.7-0.8-4.9-2.5-6.6h15.4c-0.3,0.4-0.6,0.8-0.8,1.1
			c-1,1.6-1.6,3.4-1.6,5.5v19.8c0,1.5,0.2,2.7,0.6,3.6s1.2,1.9,2.3,3h-13.4v-2.6c-1.9,1.6-4,2.6-6.5,3.1c-1.4,0.3-2.8,0.4-4,0.4
			c-3.3,0-6-0.9-7.9-2.7c-2-1.9-3.1-4.4-3.1-7.7v-17c0-1.4-0.2-2.6-0.6-3.5C108,257.2,107.3,256.2,106.4,255z"/>
		<path class="st0" d="M148.4,288.1c0.4-0.4,0.8-0.9,1.3-1.4s0.8-1,1-1.5c0.4-0.9,0.6-2.2,0.6-3.6v-20c0-1.3-0.1-2.4-0.4-3.2
			c-0.3-0.8-0.8-1.8-1.7-2.8c-0.1-0.1-0.2-0.2-0.5-0.6h13l14.6,18.7v-12c0-2.3-0.7-4.3-2-6.1c-0.1-0.1-0.2-0.3-0.5-0.6h11.8
			c-0.9,1.1-1.5,2.1-1.8,3.1c-0.3,0.9-0.5,2.1-0.5,3.6V290c-0.1,0-0.3,0-0.8,0c-2.7,0-4.9-0.5-6.7-1.6c-1.3-0.9-3-2.5-5-5l-1.9-2.3
			l-10.8-13.8v14.2c0,2.5,0.8,4.5,2.4,6.1l0.5,0.5L148.4,288.1L148.4,288.1z"/>
		<path class="st0" d="M189.8,262.1l2.3-7.2h28l-2.2,7.1l-0.8-0.2c-2.2-0.4-4.3-0.7-6.2-0.7H210v20.2c0,2.4,1,4.6,2.9,6.5h-16.5
			c1.2-1.2,2-2.2,2.4-2.9c0.5-0.9,0.7-2.1,0.7-3.7V261h-1.2l-3.2,0.1h-0.3c-0.6,0.1-1.8,0.2-3.7,0.5L189.8,262.1z"/>
	</g>
	<g>
		<path class="st0" d="M4.8,262.4c0.1-0.1,11.1-41.9,11.1-41.9c0.1-0.8,0.2-1.5,0.2-2.2c0-1.4-0.4-2.8-1.3-4.2
			c-0.1-0.3-0.3-0.4-0.4-0.6h14.3l6.9,18.8l7.1-18.8h14.7c-1.3,1.7-1.9,3.4-1.9,5.1c0,0.6,0,1.2,0.1,1.8l2.5,20.8
			c0.3,2.3,1.2,4.4,2.9,6.3c0.1,0.1,0.3,0.2,0.5,0.5H43.3c0.2-0.1,0.4-0.3,0.7-0.5c1.8-1.6,2.7-3.4,2.7-5.2c0-0.4,0-0.8,0-1.2
			l-1.4-13.8l-8.9,22.9l-0.4-0.1l-1-0.4c-2.7-1-4.6-2.4-5.8-4.2c-0.1-0.2-0.3-0.6-0.6-1.2l-0.2-0.5l-0.7-1.6L22,227.1l-1.8,14
			c-0.1,0.7-0.1,1.3-0.1,1.7c0,1.6,0.6,3.1,1.8,4.6c0.1,0.1,0.3,0.3,0.5,0.5L4.8,262.4z"/>
		<path class="st0" d="M67.3,217.8c2.6-2.4,5.8-3.9,9.3-4.5c1.7-0.3,3.3-0.4,4.9-0.4c6.3,0,11.2,1.9,14.7,5.8
			c2.8,3.1,4.2,6.7,4.2,10.8c0,3.5-0.9,6.7-2.6,9.6c-3.1,5.2-7.8,8.2-14.2,8.9c-1.1,0.1-2.1,0.2-3.2,0.2c-5.4,0-9.8-1.5-13.4-4.5
			c-3.8-3.2-5.7-7.5-5.7-12.7C61.4,225.8,63.3,221.4,67.3,217.8z M72,229.8c0.3,2.4,0.8,4.4,1.7,6c2.3,4.3,5.1,6.5,8.5,6.4
			c5.2-0.2,7.7-3.6,7.6-10.4c-0.1-5.8-2-10-5.5-12.6c-1.5-1.1-3.2-1.6-5-1.4c-2.5,0.2-4.4,1.3-5.7,3.3c-1.2,1.7-1.7,3.9-1.7,6.5
			C71.9,228.2,71.9,228.9,72,229.8z"/>
		<path class="st0" d="M101.8,247.4c0.4-0.4,0.8-0.9,1.3-1.4s0.8-1.1,1-1.6c0.4-1,0.7-2.2,0.7-3.7v-20.1c0-1.4-0.1-2.5-0.4-3.3
			s-0.8-1.8-1.7-2.9c-0.1-0.1-0.2-0.2-0.5-0.6h13.2l14.7,18.9v-12.1c0-2.3-0.7-4.3-2-6.1c-0.1-0.1-0.2-0.3-0.5-0.6h11.9
			c-0.9,1.1-1.5,2.1-1.9,3.1c-0.3,0.9-0.5,2.1-0.5,3.6v28.7c-0.1,0-0.3,0-0.8,0c-2.7,0-5-0.5-6.8-1.6c-1.4-0.9-3.1-2.5-5.1-5
			l-1.9-2.4l-10.9-14v14.4c0,2.5,0.8,4.5,2.4,6.1l0.5,0.5L101.8,247.4L101.8,247.4z"/>
		<path class="st0" d="M140.2,237.3c1.8,2,4.3,3.5,7.5,4.4c2,0.6,3.7,0.9,5.3,0.9c1.3,0,2.4-0.2,3.3-0.7c1.2-0.6,1.8-1.4,1.7-2.6
			c-0.1-1.2-1.2-2.2-3.4-3.1l-2.4-1c-0.3-0.1-1.3-0.6-3-1.5c-3.6-1.9-5.8-4.3-6.7-7.2c-0.4-1.2-0.6-2.3-0.6-3.4
			c0-3.5,1.6-6.1,4.7-7.8c2.6-1.4,5.8-2.1,9.5-2c1.9,0,4.3,0.4,7.2,1c0.2,0,0.5,0.1,1,0.2v7.1c-1.2-1-2.7-1.7-4.5-2.3
			c-1.8-0.5-3.4-0.8-5-0.6c-2.2,0.2-3.2,1-3.2,2.4c0,1.7,2,3.4,6.1,5c3.5,1.4,5.8,2.6,7,3.7c1.9,1.8,2.9,4.1,2.7,7.1
			c-0.2,3.9-1.9,6.9-5.2,8.8c-2.7,1.6-6.2,2.4-10.4,2.4c-2.6,0-5.1-0.2-7.6-0.7l-1.9-0.4L140.2,237.3z"/>
		<path class="st0" d="M166.6,221.2l2.3-7.3h28.4l-2.2,7.2l-0.8-0.2c-2.2-0.4-4.3-0.7-6.3-0.7h-0.9v20.5c0,2.5,1,4.7,2.9,6.6h-16.7
			c1.2-1.2,2-2.2,2.4-2.9c0.5-0.9,0.7-2.1,0.7-3.7v-20.5h-1.2l-3.2,0.1h-0.3c-0.6,0.1-1.8,0.2-3.8,0.5L166.6,221.2z"/>
		<path class="st0" d="M196.3,247.4c0.1-0.1,0.3-0.3,0.5-0.5c1.6-1.7,2.4-3.8,2.4-6.1v-20.2c0-2.3-0.7-4.4-2-6.1
			c-0.2-0.2-0.3-0.4-0.5-0.6h26.4v8.8l-0.1-0.1l-0.7-0.5c-1.5-1.1-2.8-1.7-4.1-1.7h-0.8h-0.8h-6.8v6.2h10.3v8.4l-0.4-0.3l-0.1-0.1
			l-1-0.8h-0.1c-0.7-0.5-1.6-0.7-2.8-0.7h-5.9v7.6h0.5l0.9,0.1c1.2,0.1,2.5,0.2,3.6,0.2c4.3,0,8.1-0.9,11.4-2.7l-3.2,9.2h-26.7
			V247.4z"/>
		<path class="st0" d="M226.4,248.2c1.3-1.3,2.2-2.3,2.5-3c0.6-1,0.9-2.3,0.9-3.9v-20.8c0-1.5-0.2-2.7-0.5-3.7c-0.3-0.9-1-2-1.9-3.3
			h17.9c0.7,0,1.5,0,2.4,0c7.6,0.3,11.4,3,11.4,8c0,3.7-1.8,6.3-5.4,7.7l-0.9,0.3l-0.4,0.1l21.6,37.1l-23.8-12.9
			c0,0,2.3-5.1,0.9-8.2c-1-1.7-9.3-16.8-9.3-16.8h0.4h0.5c0.4,0,0.8,0,1.2-0.1c3.4-0.8,5.1-2.6,5.1-5.5c0-2.8-2.1-4.1-6.3-4
			c-0.2,0-0.5,0-1,0h-0.3l-0.4,0.1V241c0,1.6,0.2,2.9,0.7,3.8c0.4,0.7,1.2,1.7,2.5,3h-17.8V248.2z"/>
	</g>
	<g>
		<g>
			
				<linearGradient id="SVGID_1_" gradientUnits="userSpaceOnUse" x1="141.7975" y1="113.0756" x2="141.7975" y2="250.9756" gradientTransform="matrix(1 0 0 -1 0 290.4756)">
				<stop  offset="3.255674e-04" style="stop-color:#E2570B"/>
				<stop  offset="1" style="stop-color:#FEB031"/>
			</linearGradient>
			<path class="st1" d="M239,125.5l-45.8,49.8c-1,1.1-3.2,2.1-4.7,2.1H95c-1.6,0-3.7-0.9-4.7-2.1l-45.8-49.8c-1-1.1-1.3-3.2-0.6-4.6
				L80,51.6c1.6,3.9,3.6,7.7,6.4,11.2l0.7,0.9h1.2c1.2,0,28.7-1.3,32.2-16.6l0.4-1.6l-1.4-0.8c-0.1,0-2.8-1.7-6.8-5.2h62.1
				c-4,3.5-6.7,5.2-6.8,5.2l-1.4,0.8l0.4,1.6c3.6,15.3,31.1,16.6,32.2,16.6h1.2l0.7-0.9c1.8-2.3,3.3-4.7,4.6-7.2l34,65.3
				C240.4,122.3,240.1,124.4,239,125.5z"/>
			
				<linearGradient id="SVGID_00000085938027617163752170000005780853690717694129_" gradientUnits="userSpaceOnUse" x1="209.6402" y1="259.7728" x2="168.9493" y2="259.7728" gradientTransform="matrix(1 0 0 -1 0 290.4756)">
				<stop  offset="3.255674e-04" style="stop-color:#E2570B"/>
				<stop  offset="1" style="stop-color:#FEB031"/>
			</linearGradient>
			<path style="fill:url(#SVGID_00000085938027617163752170000005780853690717694129_);" d="M169,46.6c0,0,21.9-13,34.8-46.6
				c8,11.3,9.1,44-4.6,61.4C199.1,61.5,172.2,60.4,169,46.6z"/>
			
				<linearGradient id="SVGID_00000142863424499402669310000000617701143344821890_" gradientUnits="userSpaceOnUse" x1="77.6091" y1="259.7728" x2="118.3" y2="259.7728" gradientTransform="matrix(1 0 0 -1 0 290.4756)">
				<stop  offset="3.255674e-04" style="stop-color:#E2570B"/>
				<stop  offset="1" style="stop-color:#FEB031"/>
			</linearGradient>
			<path style="fill:url(#SVGID_00000142863424499402669310000000617701143344821890_);" d="M118.3,46.6c0,0-21.9-13-34.8-46.6
				c-8,11.3-9.1,44,4.6,61.4C88.1,61.5,115,60.4,118.3,46.6z"/>
			
				<linearGradient id="SVGID_00000108292493373944197590000002527519703519893388_" gradientUnits="userSpaceOnUse" x1="77.6091" y1="259.7728" x2="118.3" y2="259.7728" gradientTransform="matrix(1 0 0 -1 0 290.4756)">
				<stop  offset="3.255674e-04" style="stop-color:#E2570B"/>
				<stop  offset="1" style="stop-color:#FEB031"/>
			</linearGradient>
			<path style="fill:url(#SVGID_00000108292493373944197590000002527519703519893388_);" d="M118.3,46.6c0,0-21.9-13-34.8-46.6
				c-8,11.3-9.1,44,4.6,61.4C88.1,61.5,115,60.4,118.3,46.6z"/>
			
				<linearGradient id="SVGID_00000177446803406854996610000002767574454102640768_" gradientUnits="userSpaceOnUse" x1="0" y1="228.0756" x2="65.9728" y2="228.0756" gradientTransform="matrix(1 0 0 -1 0 290.4756)">
				<stop  offset="3.255674e-04" style="stop-color:#E2570B"/>
				<stop  offset="1" style="stop-color:#FEB031"/>
			</linearGradient>
			<path style="fill:url(#SVGID_00000177446803406854996610000002767574454102640768_);" d="M49.4,103.5l16.4-32.4
				c0,0,2.2-9.2-9.1-17.8c-11.3-8.6-16.6-9.2-31.5-14.6C12,33.9,0,21.3,0,21.3s2.4,30.2,16.8,36.6c9.6,4.3,19.8,4.6,19.8,4.6
				S20,64.6,13.1,62.3c2.1,3.6,8,10.2,13.4,12.2s13.4,3.6,13.4,3.6l-12.7,1.7c0,0,6,6.8,10.9,9.5s9.7,5,9.7,5L49.4,103.5z"/>
			
				<linearGradient id="SVGID_00000113342617766881395810000014833447765973364401_" gradientUnits="userSpaceOnUse" x1="5887.6592" y1="228.0756" x2="5953.6318" y2="228.0756" gradientTransform="matrix(-1 0 0 -1 6171.2588 290.4756)">
				<stop  offset="3.255674e-04" style="stop-color:#E2570B"/>
				<stop  offset="1" style="stop-color:#FEB031"/>
			</linearGradient>
			<path style="fill:url(#SVGID_00000113342617766881395810000014833447765973364401_);" d="M234.2,103.5l-16.4-32.4
				c0,0-2.2-9.2,9.1-17.8c11.3-8.6,16.6-9.2,31.5-14.6c13.2-4.8,25.2-17.4,25.2-17.4s-2.4,30.2-16.8,36.6
				c-9.6,4.3-19.8,4.6-19.8,4.6s16.6,2.1,23.5-0.2c-2.1,3.6-8,10.2-13.4,12.2s-13.4,3.6-13.4,3.6l12.7,1.7c0,0-6,6.8-10.9,9.5
				s-9.7,5-9.7,5L234.2,103.5z"/>
			
				<linearGradient id="SVGID_00000023966937136359844070000004556372643679479955_" gradientUnits="userSpaceOnUse" x1="28.6" y1="119.9756" x2="75.8" y2="119.9756" gradientTransform="matrix(1 0 0 -1 0 290.4756)">
				<stop  offset="3.255674e-04" style="stop-color:#E2570B"/>
				<stop  offset="1" style="stop-color:#FEB031"/>
			</linearGradient>
			<path style="fill:url(#SVGID_00000023966937136359844070000004556372643679479955_);" d="M61.5,148.5c0,0-4.2,4.1-11.2,8.4
				c-9.9,6-15.1,10-16.8,21.3l-4.9-2.3l5,16.6l8.1-16.6l-5.1,2.8c0,0,1.5-8.9,16.3-13.8c9.1-3,22.9,0,22.9,0L61.5,148.5z"/>
		</g>
		<path class="st8" d="M154.2,93.8c0,0,22.2-7.2,36.5-19.2c0,0-2.2,29.6-21.3,32.4C169.4,107,161.2,103.2,154.2,93.8z"/>
		<path class="st8" d="M131.3,94.1c0,0-22.2-7.2-36.5-19.2c0,0,2.2,29.6,21.3,32.4C116.1,107.2,124.3,103.5,131.3,94.1z"/>
		<path class="st8" d="M120.3,141.2c0.4,0,0.8,0.2,0.9,0.6l1.8,3.6l2.9-5c0.2-0.3,0.5-0.5,0.8-0.5s29.3-1.5,39.2-5.5
			c0.4-0.2,0.8-0.1,1.1,0.2l2.9,3.1l1.6-4.8c0.1-0.3,0.3-0.5,0.6-0.6c0.2-0.1,15.9-6.1,20.1-10c-0.5-3.5-1.5-7.4-1.5-7.4
			c-35.2,14.8-100.5,11.9-100.5,11.9s1.3,4.9,5.1,10.8C96.7,137.9,112.9,141.5,120.3,141.2z"/>
		<path class="st8" d="M192.4,124.6c0.1,1,0.1,1.9,0,2.4c-0.6,2.4-8.2,27.1-50.6,30.9c-24.4,2.2-37.9-8.5-44.9-17.9
			c4.9,1,16.4,3.3,22.8,3.2l2.3,4.7c0.2,0.3,0.5,0.5,0.9,0.6l0,0c0.4,0,0.7-0.2,0.9-0.5l3.5-6.2c4.1-0.2,28.6-1.7,38.7-5.3l3.6,3.9
			c0.2,0.3,0.6,0.4,0.9,0.3s0.6-0.3,0.7-0.7l2-5.9C175.7,133,187.4,128.3,192.4,124.6z"/>
	</g>
</g>
</svg>
