<svg width="34" height="34" viewBox="0 0 34 34" fill="none" xmlns="http://www.w3.org/2000/svg">
<g clip-path="url(#clip0)">
<path d="M17 34C26.3889 34 34.0001 26.3888 34.0001 17C34.0001 7.61116 26.3889 0 17 0C7.61117 0 0 7.61116 0 17C0 26.3888 7.61117 34 17 34Z" fill="#F833A9"/>
<path d="M21.3973 7H18.201C16.3041 7 14.1944 7.79778 14.1944 10.5473C14.2036 11.5054 14.1944 12.4229 14.1944 13.4555H12V16.9474H14.2623V27H18.4193V16.8811H21.1631L21.4113 13.4457H18.3477C18.3477 13.4457 18.3545 11.9175 18.3477 11.4737C18.3477 10.3872 19.4782 10.4494 19.5462 10.4494C20.0843 10.4494 21.1303 10.4509 21.3989 10.4494V7H21.3973Z" fill="white"/>
</g>
<defs>
<clipPath id="clip0">
<rect width="34" height="34" fill="white"/>
</clipPath>
</defs>
</svg>
