<svg width="34" height="34" viewBox="0 0 34 34" fill="none" xmlns="http://www.w3.org/2000/svg">
<g clip-path="url(#clip0)">
<path d="M17 34C26.3889 34 34.0001 26.3888 34.0001 17C34.0001 7.61116 26.3889 0 17 0C7.61117 0 0 7.61116 0 17C0 26.3888 7.61117 34 17 34Z" fill="#F833A9"/>
<path fill-rule="evenodd" clip-rule="evenodd" d="M9 9C7.89543 9 7 9.89543 7 11V23C7 24.1046 7.89543 25 9 25H25C26.1046 25 27 24.1046 27 23V11C27 9.89543 26.1046 9 25 9H9ZM9.6 11.2001C9.15817 10.8687 8.53137 10.9582 8.2 11.4001C7.86863 11.8419 7.95817 12.4687 8.4 12.8001L15.2 17.9001C16.2667 18.7001 17.7333 18.7001 18.8 17.9001L25.6 12.8001C26.0418 12.4687 26.1314 11.8419 25.8 11.4001C25.4686 10.9582 24.8418 10.8687 24.4 11.2001L17.6 16.3001C17.2444 16.5667 16.7556 16.5667 16.4 16.3001L9.6 11.2001Z" fill="white"/>
</g>
<defs>
<clipPath id="clip0">
<rect width="34" height="34" fill="white"/>
</clipPath>
</defs>
</svg>
